<svg xmlns="http://www.w3.org/2000/svg" viewBox="0 0 820 230" width="820" height="230" role="img" aria-labelledby="t d">
  <title id="t">segue</title>
  <desc id="d">A long conversation runs into a double barline marked compact. A tie crosses the barline and a handoff card hangs from it; after the barline the conversation continues from the card, short.</desc>
  <g font-family="'Iowan Old Style','Palatino Linotype',Palatino,Georgia,serif" fill="#1F2328">
    <text x="24" y="128" font-size="84" font-style="italic" letter-spacing="-1">segue</text>
  </g>
  <g stroke="#1F2328" stroke-linecap="round" fill="none">
    <line x1="300" y1="110" x2="522" y2="110" stroke-width="2"/>
    <g stroke-width="2" opacity="0.55"><line x1="308" y1="96" x2="308" y2="110"/><line x1="316" y1="88" x2="316" y2="110"/><line x1="324" y1="101" x2="324" y2="110"/><line x1="332" y1="84" x2="332" y2="110"/><line x1="340" y1="93" x2="340" y2="110"/><line x1="348" y1="80" x2="348" y2="110"/><line x1="356" y1="98" x2="356" y2="110"/><line x1="364" y1="86" x2="364" y2="110"/><line x1="372" y1="91" x2="372" y2="110"/><line x1="380" y1="102" x2="380" y2="110"/><line x1="388" y1="83" x2="388" y2="110"/><line x1="396" y1="95" x2="396" y2="110"/><line x1="404" y1="89" x2="404" y2="110"/><line x1="412" y1="99" x2="412" y2="110"/><line x1="420" y1="81" x2="420" y2="110"/><line x1="428" y1="92" x2="428" y2="110"/><line x1="436" y1="85" x2="436" y2="110"/><line x1="444" y1="100" x2="444" y2="110"/><line x1="452" y1="87" x2="452" y2="110"/><line x1="460" y1="94" x2="460" y2="110"/><line x1="468" y1="82" x2="468" y2="110"/><line x1="476" y1="97" x2="476" y2="110"/><line x1="484" y1="90" x2="484" y2="110"/><line x1="492" y1="101" x2="492" y2="110"/><line x1="500" y1="84" x2="500" y2="110"/><line x1="508" y1="93" x2="508" y2="110"/><line x1="516" y1="88" x2="516" y2="110"/></g>
    <line x1="531" y1="62" x2="531" y2="140" stroke-width="2"/>
    <line x1="539" y1="62" x2="539" y2="140" stroke-width="2"/>
    <line x1="548" y1="110" x2="796" y2="110" stroke-width="2"/>
    <g stroke-width="2" opacity="0.55"><line x1="566" y1="90" x2="566" y2="110"/><line x1="574" y1="98" x2="574" y2="110"/><line x1="582" y1="86" x2="582" y2="110"/></g>
    <path d="M498 122 Q535 160 572 122" stroke-width="2.5"/>
    <line x1="535" y1="141" x2="535" y2="158" stroke-width="1.5"/>
  </g>
  <rect x="505" y="158" width="60" height="46" rx="3" fill="#F5A524" stroke="#1F2328" stroke-width="1.5"/>
  <g stroke="#1F2328" stroke-width="2" stroke-linecap="round">
    <line x1="514" y1="170" x2="556" y2="170"/><line x1="514" y1="181" x2="548" y2="181"/><line x1="514" y1="192" x2="552" y2="192"/>
  </g>
  <g font-family="-apple-system,'Segoe UI',Helvetica,Arial,sans-serif" font-size="13" fill="#1F2328">
    <text x="535" y="50" text-anchor="middle" font-weight="600">compact</text>
    <text x="300" y="134" opacity="0.72">long conversation</text>
    <text x="796" y="134" text-anchor="end" opacity="0.72">continues from the card</text>
    <text x="577" y="178" font-weight="600">handoff card</text>
    <text x="577" y="196" opacity="0.72">written before, read after</text>
  </g>
</svg>
